<svg width="22" height="22" viewBox="0 0 22 22" fill="none" xmlns="http://www.w3.org/2000/svg">
<path d="M21.6333 17.6H0.366652C0.16427 17.6 0 17.7639 0 17.9667C0 20.1905 1.8095 22 4.03335 22H17.9667C20.1905 22 22 20.1905 22 17.9667C22 17.7639 21.8361 17.6 21.6333 17.6ZM17.9667 21.2667H4.03335C2.3375 21.2667 0.936461 19.9811 0.7535 18.3333H21.2461C21.0632 19.9812 19.6625 21.2667 17.9667 21.2667Z" fill="white"/>
<path d="M11.0003 12.1C10.9985 12.1 10.997 12.1 10.9956 12.1C9.55053 12.1 8.16268 12.632 7.08838 13.5986L7.57861 14.1435C8.51838 13.2987 9.73168 12.8334 10.996 12.8334C10.9971 12.8334 10.9989 12.8334 11 12.8334C13.0321 12.8334 14.7693 13.8945 15.426 15.536L16.1073 15.264C15.3383 13.3419 13.3334 12.1 11.0003 12.1Z" fill="white"/>
<path d="M13.8028 14.5765C11.9321 13.0317 9.15345 13.2968 7.60834 15.1668L8.17372 15.6336C9.4611 14.0752 11.7769 13.8538 13.3353 15.1415C13.5883 15.3509 13.8119 15.5929 14.0001 15.8601L14.6007 15.4388C14.3748 15.118 14.1064 14.828 13.8028 14.5765Z" fill="white"/>
<path d="M13.053 15.8715C11.8973 14.7389 10.0368 14.7587 8.90454 15.9133L9.4285 16.4267C10.2777 15.5606 11.6736 15.5463 12.5397 16.3948C12.9595 16.8058 13.2 17.3786 13.2 17.9667H13.9334C13.9334 17.1827 13.6125 16.4189 13.053 15.8715Z" fill="white"/>
<path d="M15.0495 13.5667C15.044 13.5667 15.0389 13.5667 15.0334 13.5667H14.6667V14.3H15.0349C17.1164 14.3081 18.894 15.917 19.0682 17.9971L19.7986 17.9362C19.5936 15.4829 17.5084 13.5667 15.0495 13.5667Z" fill="white"/>
<path d="M17.2197 15.8749C16.5626 15.2875 15.7156 14.9901 14.836 15.04C13.956 15.0887 13.1479 15.4778 12.5601 16.1345L13.1065 16.6236C13.5637 16.1128 14.1922 15.81 14.8767 15.7718C15.565 15.7362 16.2195 15.9643 16.731 16.4212C17.1919 16.8337 17.4885 17.3987 17.5662 18.0129L18.2941 17.9205C18.1939 17.1314 17.8122 16.4047 17.2197 15.8749Z" fill="white"/>
<path d="M15.4715 16.5543C14.4921 16.3027 13.4919 16.8967 13.2407 17.8757L13.9513 18.0576C14.1017 17.4702 14.7023 17.1142 15.2897 17.2649C15.6787 17.3643 15.9831 17.6682 16.0824 18.0576L16.793 17.8757C16.6265 17.2267 16.1205 16.7204 15.4715 16.5543Z" fill="white"/>
<path d="M7.34106 13.5747C6.07202 13.4713 4.83856 13.8673 3.86798 14.6912C2.89706 15.5151 2.30525 16.6679 2.20148 17.9366L2.93225 17.9967C3.01986 16.9228 3.52075 15.9474 4.34209 15.2508C5.16379 14.5537 6.20732 14.2175 7.28129 14.3062C7.87713 14.3546 8.46525 14.5398 8.98225 14.8408L9.35148 14.2069C8.74025 13.8508 8.04506 13.6323 7.34106 13.5747Z" fill="white"/>
<path d="M7.37036 15.0502C5.56675 14.8273 3.91378 16.1157 3.69159 17.9219L4.41944 18.0114C4.59213 16.6067 5.87548 15.6083 7.28055 15.7777C8.45132 15.9221 9.36982 16.8406 9.51394 18.0114L10.2425 17.9219C10.0569 16.4164 8.87586 15.2354 7.37036 15.0502Z" fill="white"/>
<path d="M7.43012 16.5634C6.95673 16.4395 6.4625 16.508 6.04008 16.7548C5.61731 17.0023 5.31627 17.3998 5.19269 17.8735L5.90219 18.059C5.97661 17.7749 6.15738 17.5361 6.41077 17.388C6.66416 17.2395 6.96077 17.1988 7.24492 17.2733C7.62919 17.3737 7.93058 17.6748 8.03104 18.0594L8.7402 17.8735C8.57266 17.2326 8.0707 16.7306 7.43012 16.5634Z" fill="white"/>
<path d="M11 16.5C10.1912 16.5 9.53339 17.1578 9.53339 17.9667H10.2667C10.2667 17.5622 10.5956 17.2333 11.0001 17.2333C11.4045 17.2333 11.7334 17.5622 11.7334 17.9667H12.4668C12.4667 17.1578 11.8089 16.5 11 16.5Z" fill="white"/>
<path d="M6.59998 1.46664H3.66663V2.19999H6.59998V1.46664Z" fill="white"/>
<path d="M6.59996 2.93335H4.39996V3.6667H6.59996V2.93335Z" fill="white"/>
<path d="M2.85929 7.88481C2.47064 7.20539 2.47064 6.3617 2.85929 5.68223C3.37629 4.77838 3.37629 3.65531 2.85929 2.75146C2.47064 2.07204 2.47064 1.22835 2.85929 0.548883C2.92417 0.43523 2.92383 0.295883 2.85817 0.182574C2.79256 0.0696523 2.67156 0 2.54102 0H1.46667V0.733348H1.98002C1.72556 1.51693 1.80621 2.38739 2.22275 3.11523C2.61141 3.79466 2.61141 4.63835 2.22275 5.31781C1.70575 6.22166 1.70575 7.34473 2.22275 8.24858C2.61141 8.928 2.61141 9.7717 2.22275 10.4512C1.70575 11.3554 1.70575 12.4781 2.20771 13.3526C2.31991 13.5975 2.41487 13.8516 2.49006 14.1068L3.19333 13.8997C3.10825 13.6107 3.00083 13.3244 2.85929 13.0182C2.47064 12.3391 2.47064 11.4947 2.85929 10.8156C3.37629 9.91173 3.37629 8.78861 2.85929 7.88481Z" fill="white"/>
<path d="M21.9993 2.673C21.9692 1.60011 21.0723 0.759731 19.9984 0.781L9.31406 1.09523L8.75487 0.536078C8.40876 0.190309 7.9486 0 7.45983 0C7.4591 0 7.45837 0 7.45799 0H4.05899C3.92737 0 3.80599 0.0703828 3.74072 0.184422C3.22372 1.08827 3.22372 2.21134 3.74072 3.11519C4.12937 3.79461 4.12937 4.63835 3.74072 5.31777C3.22372 6.22162 3.22372 7.34469 3.74072 8.24854C4.12937 8.92796 4.12937 9.77165 3.74072 10.4511C3.22372 11.3553 3.22372 12.478 3.74072 13.3819C3.79095 13.4699 3.83495 13.5612 3.87272 13.6554L4.55326 13.3826C4.50337 13.2576 4.44399 13.1348 4.37726 13.0182C3.9886 12.3391 3.9886 11.4947 4.37726 10.8156C4.89426 9.91173 4.89426 8.78866 4.37726 7.88481C3.9886 7.20539 3.9886 6.3617 4.37726 5.68223C4.47772 5.50623 4.55876 5.32254 4.61999 5.13335H7.4576C7.45833 5.13335 7.45872 5.13335 7.45945 5.13335C7.94856 5.13335 8.40876 4.9427 8.75487 4.59693L9.30964 4.04216L19.9393 4.66697C19.9774 4.66916 20.0306 4.66843 20.0529 4.67027C21.1258 4.67027 21.9992 3.79762 21.9999 2.72439L21.9993 2.673ZM20.0526 3.93688C20.0244 3.93065 20.0065 3.93615 19.983 3.93504L9.18829 3.30073C9.08379 3.29304 8.98149 3.33334 8.90741 3.40742L8.23641 4.07842C8.02887 4.28557 7.75314 4.4 7.45906 4.4C7.45867 4.4 7.45833 4.4 7.45794 4.4H4.75929C4.79414 3.83311 4.66691 3.25785 4.37721 2.75112C4.02336 2.1322 3.99183 1.3765 4.28298 0.733348H7.45833C7.45872 0.733348 7.45906 0.733348 7.45945 0.733348C7.75279 0.733348 8.02887 0.84773 8.23641 1.05527L8.90741 1.72627C8.97852 1.79738 9.07829 1.83919 9.17729 1.83335L20.0193 1.51396C20.7038 1.49527 21.2472 2.02473 21.2666 2.72396C21.2659 3.39311 20.7214 3.93688 20.0526 3.93688Z" fill="white"/>
<path d="M5.84353 7.88481C5.45488 7.20538 5.45488 6.36169 5.84314 5.68262C5.98979 5.42742 6.09687 5.15277 6.16175 4.86604L5.44641 4.70435C5.39764 4.91958 5.31733 5.126 5.20699 5.31815C4.68999 6.222 4.68999 7.34508 5.20699 8.24892C5.59564 8.92835 5.59564 9.77242 5.2066 10.4522C4.7281 11.2926 4.69072 12.316 5.10649 13.189L5.76833 12.8741C5.45522 12.217 5.48379 11.4474 5.84348 10.8156C6.36053 9.91173 6.36053 8.78865 5.84353 7.88481Z" fill="white"/>
<path d="M2.20002 1.46664H1.46667V2.19999H2.20002V1.46664Z" fill="white"/>
<path d="M2.56667 2.93335H1.46667V3.6667H2.56667V2.93335Z" fill="white"/>
<path d="M2.93333 4.39999H1.46667V5.13334H2.93333V4.39999Z" fill="white"/>
</svg>
