<svg width="68" height="68" viewBox="0 0 68 68" fill="none" xmlns="http://www.w3.org/2000/svg">
<circle cx="34" cy="34" r="34" fill="#E0DDFF"/>
<mask id="mask0" mask-type="alpha" maskUnits="userSpaceOnUse" x="0" y="0" width="68" height="68">
<circle cx="34" cy="34" r="34" fill="#FFEDEF"/>
</mask>
<g mask="url(#mask0)">
<g clip-path="url(#clip0)">
<path d="M43.6632 64.8683C41.0863 61.2893 39.0702 54.37 38.8316 50.9104L26.5737 45.6313L21.4737 64.8683H43.6632Z" fill="#F9C9B6" stroke="black" stroke-width="0.715789"/>
<mask id="mask1" mask-type="alpha" maskUnits="userSpaceOnUse" x="21" y="45" width="455" height="432">
<path d="M475.705 476.054C422.956 402.791 381.684 224.517 376.8 153.696L125.874 45.6313L21.4737 476.054H475.705Z" fill="#F9C9B6"/>
</mask>
<g mask="url(#mask1)">
<g style="mix-blend-mode:multiply">
<ellipse cx="38.2947" cy="45.2738" rx="10.5579" ry="9.66316" fill="black"/>
</g>
</g>
<mask id="path-6-inside-1" fill="white">
<path fill-rule="evenodd" clip-rule="evenodd" d="M49.0103 34.6969C49.0058 34.6776 49.0012 34.6583 48.9966 34.639C48.9919 34.6197 48.9873 34.6004 48.9826 34.5811L46.0435 22.3141C46.0419 22.3074 46.0403 22.3007 46.0387 22.294C46.0371 22.2873 46.0355 22.2806 46.0339 22.2738L46.0169 22.2031L46.0166 22.2032C44.1881 14.7868 36.7123 10.2267 29.2727 12.0091C21.8332 13.7916 17.2356 21.2444 18.9665 28.6841L18.9661 28.6842L18.9879 28.7751L22.0067 41.3748L22.0092 41.3742C23.9065 48.694 31.327 53.1743 38.7118 51.4049C46.0965 49.6356 50.681 42.2791 49.0552 34.8942L49.0575 34.8937L49.0103 34.6969Z"/>
</mask>
<path fill-rule="evenodd" clip-rule="evenodd" d="M49.0103 34.6969C49.0058 34.6776 49.0012 34.6583 48.9966 34.639C48.9919 34.6197 48.9873 34.6004 48.9826 34.5811L46.0435 22.3141C46.0419 22.3074 46.0403 22.3007 46.0387 22.294C46.0371 22.2873 46.0355 22.2806 46.0339 22.2738L46.0169 22.2031L46.0166 22.2032C44.1881 14.7868 36.7123 10.2267 29.2727 12.0091C21.8332 13.7916 17.2356 21.2444 18.9665 28.6841L18.9661 28.6842L18.9879 28.7751L22.0067 41.3748L22.0092 41.3742C23.9065 48.694 31.327 53.1743 38.7118 51.4049C46.0965 49.6356 50.681 42.2791 49.0552 34.8942L49.0575 34.8937L49.0103 34.6969Z" fill="#F9C9B6"/>
<path d="M49.0103 34.6969L48.3135 34.8608L48.3142 34.8637L49.0103 34.6969ZM48.9826 34.5811L48.2865 34.7479L48.2872 34.7508L48.9826 34.5811ZM46.0435 22.3141L45.3472 22.4798L45.3474 22.4809L46.0435 22.3141ZM46.0387 22.294L46.7348 22.1273L46.7348 22.1272L46.0387 22.294ZM46.0339 22.2738L45.3378 22.4406L45.338 22.4416L46.0339 22.2738ZM46.0169 22.2031L46.713 22.0363L46.5464 21.3411L45.851 21.5068L46.0169 22.2031ZM46.0166 22.2032L45.3216 22.3745L45.4917 23.0641L46.1825 22.8995L46.0166 22.2032ZM29.2727 12.0091L29.4395 12.7052L29.2727 12.0091ZM18.9665 28.6841L19.1352 29.3798L19.8243 29.2126L19.6636 28.5219L18.9665 28.6841ZM18.9661 28.6842L18.7974 27.9886L18.1036 28.1569L18.2701 28.8511L18.9661 28.6842ZM18.9879 28.7751L19.684 28.6083L19.684 28.6082L18.9879 28.7751ZM22.0067 41.3748L21.3106 41.5416L21.4773 42.2375L22.1733 42.0709L22.0067 41.3748ZM22.0092 41.3742L22.7021 41.1946L22.5258 40.5146L21.8426 40.6781L22.0092 41.3742ZM38.7118 51.4049L38.8785 52.101L38.7118 51.4049ZM49.0552 34.8942L48.8884 34.1981L48.2051 34.3619L48.3562 35.0481L49.0552 34.8942ZM49.0575 34.8937L49.2243 35.5897L49.9203 35.4229L49.7535 34.7269L49.0575 34.8937ZM49.7071 34.5331C49.7023 34.5128 49.6975 34.4925 49.6927 34.4722L48.3005 34.8058C48.3049 34.8241 48.3092 34.8424 48.3135 34.8608L49.7071 34.5331ZM49.6927 34.4722C49.6878 34.452 49.6829 34.4317 49.678 34.4114L48.2872 34.7508C48.2917 34.7691 48.2961 34.7874 48.3005 34.8058L49.6927 34.4722ZM45.3474 22.4809L48.2865 34.7479L49.6787 34.4143L46.7396 22.1473L45.3474 22.4809ZM46.7398 22.1483C46.7381 22.1412 46.7365 22.1342 46.7348 22.1273L45.3426 22.4607C45.3441 22.4671 45.3457 22.4735 45.3472 22.4798L46.7398 22.1483ZM46.7348 22.1272C46.7331 22.1201 46.7314 22.1131 46.7297 22.1061L45.338 22.4416C45.3396 22.448 45.3411 22.4544 45.3426 22.4607L46.7348 22.1272ZM45.3208 22.3699L45.3378 22.4406L46.7299 22.1071L46.713 22.0363L45.3208 22.3699ZM46.1825 22.8995L46.1828 22.8994L45.851 21.5068L45.8507 21.5069L46.1825 22.8995ZM46.7116 22.0318C44.7889 14.2337 36.9284 9.43886 29.106 11.3131L29.4395 12.7052C36.4962 11.0145 43.5872 15.34 45.3216 22.3745L46.7116 22.0318ZM29.106 11.3131C21.2835 13.1872 16.4494 21.0236 18.2693 28.8463L19.6636 28.5219C18.0219 21.4652 22.3829 14.3959 29.4395 12.7052L29.106 11.3131ZM19.1348 29.3798L19.1352 29.3798L18.7978 27.9885L18.7974 27.9886L19.1348 29.3798ZM19.684 28.6082L19.6622 28.5173L18.2701 28.8511L18.2919 28.942L19.684 28.6082ZM22.7028 41.208L19.684 28.6083L18.2918 28.9419L21.3106 41.5416L22.7028 41.208ZM21.8426 40.6781L21.8401 40.6787L22.1733 42.0709L22.1758 42.0703L21.8426 40.6781ZM21.3163 41.5538C23.3113 49.2506 31.1136 53.9614 38.8785 52.101L38.545 50.7089C31.5403 52.3871 24.5016 48.1374 22.7021 41.1946L21.3163 41.5538ZM38.8785 52.101C46.6435 50.2406 51.4638 42.5055 49.7543 34.7403L48.3562 35.0481C49.8983 42.0526 45.5496 49.0306 38.545 50.7089L38.8785 52.101ZM48.8906 34.1976L48.8884 34.1981L49.2221 35.5903L49.2243 35.5897L48.8906 34.1976ZM48.3142 34.8637L48.3614 35.0604L49.7535 34.7269L49.7064 34.5302L48.3142 34.8637Z" fill="black" mask="url(#path-6-inside-1)"/>
</g>
<path d="M38.6503 46.1384C40.5896 45.7874 41.7257 43.6445 41.3306 41.4611C40.9354 39.2778 39.1203 37.6689 37.1811 38.0199C35.2418 38.3708 34.1057 40.5138 34.5008 42.6972C34.8959 44.8805 36.7111 46.4894 38.6503 46.1384Z" fill="black" stroke="black" stroke-width="0.642627"/>
<mask id="mask2" mask-type="alpha" maskUnits="userSpaceOnUse" x="34" y="38" width="8" height="8">
<ellipse cx="37.9157" cy="42.0791" rx="3.14904" ry="3.80389" transform="rotate(-10.2582 37.9157 42.0791)" fill="#171921"/>
</mask>
<g mask="url(#mask2)">
<ellipse cx="38.4991" cy="45.3021" rx="3.61556" ry="3.27557" transform="rotate(-10.2582 38.4991 45.3021)" fill="#FC909F"/>
</g>
<circle cx="29.9353" cy="28.4995" r="2.14737" transform="rotate(-6.27568 29.9353 28.4995)" fill="#D2EFF3"/>
<ellipse cx="30.1662" cy="30.1391" rx="1.61053" ry="2.41579" transform="rotate(-6.77646 30.1662 30.1391)" fill="black"/>
<circle cx="41.3484" cy="26.9556" r="2.14737" transform="rotate(-6.27568 41.3484 26.9556)" fill="#D2EFF3"/>
<ellipse cx="41.6188" cy="28.3498" rx="1.61053" ry="2.41579" transform="rotate(-6.27568 41.6188 28.3498)" fill="black"/>
<path d="M39.1894 23.6594C40.2035 23.1822 42.5894 22.7468 44.021 24.8226" stroke="black" stroke-width="0.715789" stroke-linecap="round"/>
<path d="M25.693 28.1879C26.0636 27.1302 27.4256 25.1234 29.9095 25.5576" stroke="black" stroke-width="0.715789" stroke-linecap="round"/>
<path d="M26.1395 27.1031L25.0393 26.1321" stroke="black" stroke-width="0.715789" stroke-linecap="round"/>
<path d="M43.4772 23.8281L44.5774 22.8571" stroke="black" stroke-width="0.715789" stroke-linecap="round"/>
<path d="M27.2936 26.093L26.5695 24.8167" stroke="black" stroke-width="0.715789" stroke-linecap="round"/>
<path d="M42.1442 23.1761L42.8683 21.8998" stroke="black" stroke-width="0.715789" stroke-linecap="round"/>
<path d="M28.7388 25.4465L28.3449 24.0328" stroke="black" stroke-width="0.715789" stroke-linecap="round"/>
<path d="M40.52 23.0662L40.9139 21.6526" stroke="black" stroke-width="0.715789" stroke-linecap="round"/>
<path d="M29.5176 21.4259C29.377 21.1142 29.3768 21.1143 29.3767 21.1144L29.3763 21.1146L29.3749 21.1152L29.3705 21.1172L29.3544 21.1246C29.3405 21.1311 29.3204 21.1405 29.2945 21.1528C29.2428 21.1775 29.1678 21.214 29.0728 21.2622C28.883 21.3585 28.613 21.5015 28.2891 21.6899C27.642 22.0664 26.7757 22.6262 25.9013 23.3597C24.1625 24.8182 22.3361 27.0109 22.2261 29.8555C22.1787 31.0794 22.0257 36.9919 22.0599 39.2514C22.0887 41.1541 23.0733 43.197 24.4392 45.0808C25.6293 46.7221 27.1323 48.2748 28.622 49.5543C21.8639 49.8215 16.744 48.9349 13.2841 47.9641C11.4798 47.4579 10.1263 46.9286 9.22677 46.5276C8.87118 46.3691 8.58653 46.2307 8.373 46.1216C10.0004 44.9255 11.3581 42.875 12.2539 39.8317C13.2363 36.4942 13.672 31.9363 13.2897 25.9252C12.9434 20.4785 15.5904 15.8767 19.5901 12.6234C23.594 9.36679 28.9294 7.48441 33.884 7.48441C36.5653 7.48441 38.7405 8.00943 40.4941 9.28296C42.2484 10.5569 43.6242 12.6114 44.6432 15.7556L44.7139 15.9738L44.9426 15.9911C47.1573 16.159 48.7147 17.0719 49.8629 18.5346C51.0235 20.0131 51.7792 22.0705 52.3331 24.5419C52.6982 26.1702 52.3427 27.777 51.9154 29.6273L51.8955 29.7136C51.4772 31.524 51.0118 33.5381 51.2166 35.8931C51.4009 38.0126 52.2468 40.0928 52.9499 41.6925C53.0402 41.898 53.1277 42.0945 53.2111 42.2819C53.4571 42.8344 53.6675 43.307 53.8095 43.693C53.9047 43.9516 53.9597 44.1471 53.9772 44.2859C53.9861 44.3568 53.983 44.3936 53.9805 44.409C53.9009 44.4825 53.7535 44.5639 53.518 44.6359C53.2729 44.7107 52.9644 44.7658 52.6097 44.8004C51.901 44.8696 51.0452 44.8535 50.2231 44.7744C49.3994 44.6951 48.6294 44.5544 48.0897 44.3829C47.8159 44.2959 47.6264 44.2085 47.5196 44.1328C47.5032 44.1212 47.4907 44.1114 47.4811 44.1034C47.5478 43.873 47.644 43.5982 47.7551 43.2808C48.3268 41.6479 49.2932 38.8874 48.6682 35.2515C48.2943 33.0762 47.2964 29.2347 46.3968 25.9517C45.9461 24.3069 45.5186 22.7973 45.2038 21.6988C45.0465 21.1496 44.9172 20.703 44.8273 20.3938C44.7823 20.2391 44.7472 20.1188 44.7233 20.0371L44.6961 19.9441L44.6891 19.9203L44.6873 19.9142L44.6869 19.9127L44.6867 19.9123C44.6867 19.9122 44.6867 19.9122 44.3586 20.0087L44.6867 19.9122L44.5205 19.3469L44.1122 19.7716L44.1121 19.7717L44.1114 19.7724L44.1079 19.776L44.0926 19.7917C44.0786 19.8058 44.0572 19.8273 44.0285 19.8557C43.9712 19.9124 43.8846 19.9963 43.7698 20.1035C43.5403 20.3178 43.1979 20.6249 42.7502 20.992C41.8546 21.7263 40.5391 22.6997 38.864 23.6516C35.6756 25.4634 31.196 27.1912 25.8328 27.0575C27.5533 25.4593 28.5432 24.1457 29.1104 23.1942C29.4266 22.6636 29.6112 22.2461 29.7176 21.9553C29.7707 21.8099 29.8043 21.6964 29.8251 21.6164C29.8354 21.5764 29.8426 21.5449 29.8474 21.5219C29.8481 21.5183 29.8488 21.5149 29.8494 21.5117C29.8508 21.5048 29.8519 21.4989 29.8528 21.494L29.8544 21.485L29.855 21.4817L29.8552 21.4803L29.8553 21.4798C29.8553 21.4795 29.8554 21.4792 29.5176 21.4259ZM29.5176 21.4259L29.377 21.1142L29.954 20.8539L29.8554 21.4792L29.5176 21.4259ZM29.1802 21.3702C29.1802 21.3701 29.1802 21.3701 29.1802 21.3703L29.1802 21.3702ZM47.4536 44.0751C47.4541 44.0751 47.4562 44.0775 47.4587 44.0822C47.4545 44.0774 47.4532 44.0751 47.4536 44.0751Z" fill="#D2EFF3" stroke="black" stroke-width="0.683908"/>
<path d="M44.7368 15.9261C44.8263 16.7314 44.6832 18.3419 44.4684 19.4156" stroke="black" stroke-width="0.715789"/>
<path d="M36.4662 30.9525C36.5026 31.6401 36.7701 33.1144 37.5486 33.511C38.5218 34.0067 37.7589 35.6499 35.937 35.5445" stroke="black" stroke-width="0.715789"/>
<path d="M23.3465 38.8514L23.4421 38.7484V38.6079V32.613V32.4127L23.2714 32.3079C22.6032 31.8979 21.7907 31.6736 20.9511 31.6736C19.9418 31.6736 18.9969 31.9863 18.3238 32.6211C17.6431 33.2631 17.2759 34.2017 17.3734 35.3717C17.4684 36.5119 17.8512 37.3511 18.4861 37.9087C18.434 38.0875 18.4186 38.2803 18.4427 38.4831C18.5124 39.068 18.808 39.4894 19.265 39.7491C19.7005 39.9966 20.2579 40.0841 20.8517 40.0841C21.8321 40.0841 22.6919 39.5567 23.3465 38.8514Z" stroke="black" stroke-width="0.715789"/>
<path fill-rule="evenodd" clip-rule="evenodd" d="M24.5108 35.4286C24.5235 35.3119 24.5301 35.1935 24.5301 35.0736C24.5301 33.2452 22.8289 32.0315 20.9511 32.0315C19.0734 32.0315 17.5511 33.1947 17.7301 35.342C17.8297 36.537 18.2573 37.3234 18.9203 37.7967C18.8149 37.98 18.7688 38.1952 18.7981 38.441C18.9107 39.3862 19.7175 39.7264 20.8517 39.7264C22.839 39.7264 24.4114 37.2126 24.5108 35.4286Z" fill="#F9C9B6"/>
<path d="M21.7421 33.5528C21.0263 33.2248 19.4515 33.0518 18.8789 34.9844" stroke="black" stroke-width="0.715789"/>
<path d="M19.8631 33.6422C20.2508 33.9703 20.9905 34.9843 20.8473 36.4159" stroke="black" stroke-width="0.715789"/>
<circle cx="20.5789" cy="38.6528" r="0.715789" fill="white"/>
<circle cx="20.7578" cy="38.4739" r="0.178947" fill="#FFEDEF"/>
<path d="M33.959 64.3452L34.1789 64.0629L33.959 64.3453L34.2671 64.5852L34.4793 64.2575L34.4793 64.2574L34.4797 64.2569L34.4814 64.2543L34.4887 64.2431L34.5189 64.1976C34.5458 64.1573 34.5861 64.0977 34.6387 64.0216C34.7441 63.8695 34.8988 63.6516 35.0948 63.3912C35.4873 62.8696 36.0428 62.1807 36.697 61.5072C37.3528 60.8319 38.0975 60.1829 38.8669 59.7312C39.6393 59.2778 40.4021 59.0433 41.11 59.1387C48.7043 60.1627 54.2929 63.5264 57.9206 68.5367H9.01435C11.9311 63.2861 16.0798 59.944 22.8058 58.4104C23.0925 58.3451 23.4822 58.3649 23.9695 58.4782C24.4517 58.5904 25.0015 58.7874 25.5945 59.0481C26.7803 59.5693 28.1041 60.3294 29.3481 61.1168C30.5902 61.903 31.7435 62.7105 32.5869 63.322C33.0085 63.6276 33.352 63.8839 33.59 64.0635C33.709 64.1534 33.8016 64.224 33.8642 64.2721L33.9353 64.3269L33.9533 64.3408L33.9577 64.3442L33.9587 64.345L33.959 64.3452Z" fill="#9287FF" stroke="black" stroke-width="0.715789"/>
<path d="M20.6885 58.8889L21.6131 55.4474C21.6505 55.308 21.8309 55.2686 21.9282 55.3751C24.5879 58.2856 27.9443 58.1715 29.0584 58.0379C29.2096 58.0198 29.328 58.1853 29.257 58.32L26.9025 62.7853C26.8665 62.8537 26.7926 62.8914 26.7169 62.8756C26.0103 62.7284 22.4896 61.8678 20.7093 59.0288C20.6832 58.9872 20.6758 58.9362 20.6885 58.8889Z" fill="#E0DDFF" stroke="black" stroke-width="0.715789"/>
<path d="M44.0558 58.8701L41.9835 55.3838C41.9132 55.2654 41.7398 55.2673 41.6648 55.3828C40.6382 56.964 38.8676 57.6924 38.2484 57.9075C38.137 57.9462 38.0861 58.0786 38.1461 58.1801L40.5624 62.2627C40.5984 62.3236 40.6666 62.3567 40.7347 62.3373C41.1167 62.2285 42.4275 61.6802 44.0535 59.0562C44.0884 58.9998 44.0897 58.9271 44.0558 58.8701Z" fill="#E0DDFF" stroke="black" stroke-width="0.715789"/>
<path d="M30.8684 62.0051L29.2579 58.1577L28.0052 60.8419L30.8684 62.0051Z" fill="black" stroke="black" stroke-width="0.715789" stroke-linejoin="round"/>
<path d="M36.5052 61.8263L38.1157 57.9789L39.3684 60.6631L36.5052 61.8263Z" fill="black" stroke="black" stroke-width="0.715789" stroke-linejoin="round"/>
<path d="M23.8894 54.7577L21.7421 55.2945L23.5315 56.4577L23.8894 54.7577Z" fill="black" stroke="black" stroke-width="0.715789" stroke-linejoin="round"/>
<path d="M39.9052 54.7577L41.8736 55.2945L40.621 56.4577L39.9052 54.7577Z" fill="black" stroke="black" stroke-width="0.715789" stroke-linejoin="round"/>
</g>
<defs>
<clipPath id="clip0">
<rect width="35.7895" height="57.2632" fill="white" transform="translate(16.1052 7.6947)"/>
</clipPath>
</defs>
</svg>
