<svg width="68" height="68" viewBox="0 0 68 68" fill="none" xmlns="http://www.w3.org/2000/svg">
<circle cx="34" cy="34" r="34" fill="#F9C9B6"/>
<mask id="mask0" mask-type="alpha" maskUnits="userSpaceOnUse" x="0" y="0" width="68" height="68">
<circle cx="34" cy="34" r="34" fill="#FFEDEF"/>
</mask>
<g mask="url(#mask0)">
<path d="M43.6568 66.6509C41.08 63.0719 39.0638 54.3632 38.8252 50.9035L26.5673 45.6245L21.4673 66.6509H43.6568Z" fill="#FC909F" stroke="black" stroke-width="0.715789"/>
<mask id="mask1" mask-type="alpha" maskUnits="userSpaceOnUse" x="21" y="45" width="23" height="22">
<path d="M43.6584 66.6531C41.0816 63.0741 39.0654 54.3654 38.8269 50.9057L26.569 45.6267L21.469 66.6531H43.6584Z" fill="#FFEDEF"/>
</mask>
<g mask="url(#mask1)">
<ellipse cx="38.2947" cy="45.274" rx="10.5579" ry="9.66316" fill="black"/>
</g>
<g clip-path="url(#clip0)">
<path d="M43.657 66.6511C41.0802 63.0722 39.064 54.3634 38.8254 50.9038L26.5675 45.6248L21.4675 66.6511H43.657Z" fill="#77311D" stroke="black" stroke-width="0.715789"/>
<mask id="mask2" mask-type="alpha" maskUnits="userSpaceOnUse" x="21" y="45" width="23" height="22">
<path d="M43.6567 66.6511C41.0799 63.0722 39.0637 54.3634 38.8251 50.9038L26.5672 45.6248L21.4672 66.6511H43.6567Z" fill="#AC6651"/>
</mask>
<g mask="url(#mask2)">
<ellipse cx="38.2947" cy="45.2738" rx="10.5579" ry="9.66316" fill="black"/>
</g>
<mask id="path-9-inside-1" fill="white">
<path fill-rule="evenodd" clip-rule="evenodd" d="M49.0112 34.7005C49.0064 34.68 49.0015 34.6595 48.9966 34.639C48.9917 34.6185 48.9867 34.598 48.9817 34.5776L46.0476 22.3313C46.0447 22.3188 46.0417 22.3063 46.0387 22.2938C46.0357 22.2813 46.0327 22.2689 46.0297 22.2564L46.017 22.2032L46.0167 22.2033C44.1882 14.7868 36.7124 10.2265 29.2728 12.009C21.8332 13.7915 17.2356 21.2444 18.9665 28.6842L18.9662 28.6843L22.2285 42.3005L22.2794 42.2883C24.5347 49.0621 31.6396 53.0994 38.7118 51.4049C45.784 49.7105 50.2879 42.8919 49.2286 35.8315L49.2793 35.8194L49.0112 34.7005Z"/>
</mask>
<path fill-rule="evenodd" clip-rule="evenodd" d="M49.0112 34.7005C49.0064 34.68 49.0015 34.6595 48.9966 34.639C48.9917 34.6185 48.9867 34.598 48.9817 34.5776L46.0476 22.3313C46.0447 22.3188 46.0417 22.3063 46.0387 22.2938C46.0357 22.2813 46.0327 22.2689 46.0297 22.2564L46.017 22.2032L46.0167 22.2033C44.1882 14.7868 36.7124 10.2265 29.2728 12.009C21.8332 13.7915 17.2356 21.2444 18.9665 28.6842L18.9662 28.6843L22.2285 42.3005L22.2794 42.2883C24.5347 49.0621 31.6396 53.0994 38.7118 51.4049C45.784 49.7105 50.2879 42.8919 49.2286 35.8315L49.2793 35.8194L49.0112 34.7005Z" fill="#77311D"/>
<path d="M49.0112 34.7005L48.3144 34.8642L48.3151 34.8673L49.0112 34.7005ZM48.9817 34.5776L48.2856 34.7443L48.2864 34.7474L48.9817 34.5776ZM46.0476 22.3313L45.3511 22.4962L45.3516 22.4981L46.0476 22.3313ZM46.0387 22.2938L45.3426 22.4606L45.3426 22.4606L46.0387 22.2938ZM46.0297 22.2564L45.3336 22.4232L45.3341 22.4251L46.0297 22.2564ZM46.017 22.2032L46.713 22.0364L46.5462 21.3399L45.8497 21.5072L46.017 22.2032ZM46.0167 22.2033L45.3217 22.3746L45.4921 23.0655L46.184 22.8992L46.0167 22.2033ZM29.2728 12.009L29.4396 12.7051L29.2728 12.009ZM18.9665 28.6842L19.1339 29.3802L19.8247 29.2141L19.6637 28.522L18.9665 28.6842ZM18.9662 28.6843L18.7989 27.9884L18.1035 28.1556L18.2701 28.8511L18.9662 28.6843ZM22.2285 42.3005L21.5324 42.4673L21.6992 43.1633L22.3953 42.9966L22.2285 42.3005ZM22.2794 42.2883L22.9586 42.0622L22.7512 41.4392L22.1127 41.5922L22.2794 42.2883ZM38.7118 51.4049L38.545 50.7088L38.7118 51.4049ZM49.2286 35.8315L49.0618 35.1354L48.4233 35.2884L48.5207 35.9377L49.2286 35.8315ZM49.2793 35.8194L49.446 36.5154L50.1421 36.3487L49.9754 35.6526L49.2793 35.8194ZM49.708 34.5368C49.703 34.5153 49.6979 34.4938 49.6927 34.4722L48.3005 34.8058C48.3052 34.8252 48.3098 34.8447 48.3144 34.8642L49.708 34.5368ZM49.6927 34.4722C49.6875 34.4507 49.6823 34.4292 49.6771 34.4077L48.2864 34.7474C48.2911 34.7669 48.2959 34.7863 48.3005 34.8058L49.6927 34.4722ZM45.3516 22.4981L48.2857 34.7443L49.6778 34.4108L46.7437 22.1645L45.3516 22.4981ZM46.7442 22.1664C46.7411 22.1533 46.738 22.1402 46.7348 22.127L45.3426 22.4606C45.3455 22.4725 45.3483 22.4843 45.3511 22.4962L46.7442 22.1664ZM46.7348 22.1271C46.7317 22.114 46.7285 22.1008 46.7253 22.0877L45.3341 22.4251C45.3369 22.4369 45.3398 22.4487 45.3426 22.4606L46.7348 22.1271ZM45.3209 22.37L45.3336 22.4232L46.7258 22.0896L46.713 22.0364L45.3209 22.37ZM46.184 22.8992L46.1842 22.8992L45.8497 21.5072L45.8495 21.5073L46.184 22.8992ZM46.7117 22.0319C44.7891 14.2337 36.9285 9.43872 29.106 11.3129L29.4396 12.7051C36.4963 11.0144 43.5874 15.3399 45.3217 22.3746L46.7117 22.0319ZM29.106 11.3129C21.2835 13.1871 16.4493 21.0236 18.2694 28.8464L19.6637 28.522C18.0219 21.4652 22.3828 14.3958 29.4396 12.7051L29.106 11.3129ZM19.1335 29.3803L19.1339 29.3802L18.7992 27.9883L18.7989 27.9884L19.1335 29.3803ZM22.9246 42.1337L19.6623 28.5175L18.2701 28.8511L21.5324 42.4673L22.9246 42.1337ZM22.1127 41.5922L22.0617 41.6044L22.3953 42.9966L22.4462 42.9844L22.1127 41.5922ZM21.6003 42.5144C23.9719 49.6376 31.442 53.8827 38.8786 52.101L38.545 50.7088C31.8372 52.316 25.0975 48.4867 22.9586 42.0622L21.6003 42.5144ZM38.8786 52.101C46.3151 50.3193 51.0504 43.1498 49.9365 35.7253L48.5207 35.9377C49.5254 42.634 45.2529 49.1017 38.545 50.7088L38.8786 52.101ZM49.1125 35.1233L49.0618 35.1354L49.3954 36.5276L49.446 36.5154L49.1125 35.1233ZM48.3151 34.8673L48.5832 35.9861L49.9754 35.6526L49.7073 34.5337L48.3151 34.8673Z" fill="black" mask="url(#path-9-inside-1)"/>
</g>
<path d="M34.0001 40.6507C34.8841 41.8043 36.2238 43.0824 38.2905 42.7909C40.3572 42.4995 41.2767 41.0739 41.0056 39.9193" stroke="black" stroke-width="0.715789"/>
<path d="M39.1895 23.6594C40.2035 23.1822 42.5895 22.7468 44.0211 24.8226" stroke="black" stroke-width="0.715789" stroke-linecap="round"/>
<path d="M25.6931 28.1879C26.0637 27.1302 27.4257 25.1234 29.9096 25.5576" stroke="black" stroke-width="0.715789" stroke-linecap="round"/>
<path d="M50.4143 23.5836C50.4143 11.7571 43.89 3.75782 35.9433 3.75781C25.7623 3.75781 15.3895 7.57679 15.3895 25.6349C15.3895 30.1029 17.2969 33.4321 19.9642 35.886C19.6969 35.5515 19.4814 35.2519 19.3383 35.0054C18.821 30.1772 24.5575 26.4714 30.1708 22.8452C33.1507 20.9201 36.096 19.0175 38.0525 16.9812C39.7694 17.9541 44.8156 22.03 45.7771 23.6782C46.2928 24.5622 47.1209 27.5916 47.6866 31.1277C49.5366 28.9057 50.4143 26.6822 50.4143 23.5836Z" fill="#3D6B4F" stroke="black" stroke-width="0.715789"/>
<path d="M38.163 16.8651C40.5204 14.7277 44.0472 9.84933 43.8209 6.68091" stroke="black" stroke-width="0.715789"/>
<ellipse cx="30.0923" cy="30.0542" rx="1.61053" ry="1.78947" transform="rotate(-6.77646 30.0923 30.0542)" fill="black"/>
<ellipse cx="41.5504" cy="28.2643" rx="1.61053" ry="1.78947" transform="rotate(-6.27568 41.5504 28.2643)" fill="black"/>
<circle cx="41.9631" cy="28.4524" r="4.65263" stroke="#F4D150" stroke-width="0.715789"/>
<circle cx="29.9736" cy="30.0633" r="4.65263" stroke="#F4D150" stroke-width="0.715789"/>
<path d="M37.4894 29.7053C37.4894 29.3256 37.3386 28.9615 37.0701 28.693C36.8016 28.4245 36.4375 28.2737 36.0578 28.2737C35.6781 28.2737 35.314 28.4245 35.0455 28.693C34.7771 28.9615 34.6262 29.3256 34.6262 29.7053" stroke="#F4D150" stroke-width="0.715789"/>
<path d="M25.4105 30.4211L20.042 31.4054" stroke="#F4D150" stroke-width="0.715789"/>
<path d="M36.4663 30.9524C36.5027 31.64 36.7701 33.1143 37.5486 33.5108C38.5218 34.0065 37.7589 35.6498 35.937 35.5444" stroke="black" stroke-width="0.715789"/>
<path d="M22.279 32.2421C21.862 32.1048 21.4119 32.0317 20.9512 32.0317C19.0734 32.0317 17.5512 33.1949 17.7301 35.3423C17.9165 37.5791 19.2523 38.3844 21.1301 38.3844C21.3391 38.3844 21.5436 38.366 21.7421 38.3309C21.9587 38.2925 22.1682 38.2342 22.3684 38.1579" stroke="black" stroke-width="1.43158"/>
<path d="M22.4579 38.1224C22.05 38.2911 21.6012 38.3844 21.1301 38.3844C19.2523 38.3844 17.9165 37.5791 17.7301 35.3423C17.5512 33.1949 19.0734 32.0317 20.9512 32.0317C21.5126 32.0317 22.0583 32.1402 22.5474 32.3412L22.4579 38.1224Z" fill="#77311D"/>
<path d="M21.7421 33.5526C21.0263 33.2245 19.4516 33.0515 18.8789 34.9842" stroke="black" stroke-width="0.715789"/>
<path d="M19.8632 33.6421C20.2509 33.9702 20.9905 34.9842 20.8474 36.4158" stroke="black" stroke-width="0.715789"/>
<path d="M41.0778 59.133L41.1028 59.1388L41.1284 59.1409C49.3825 59.8217 54.332 63.4879 57.9241 68.5369H9.01436C11.9311 63.2863 16.0798 59.9442 22.8058 58.4106C25.6714 57.7573 29.0096 57.4314 32.9263 57.4314C34.6183 57.4314 35.935 57.6895 37.1846 58.0301C37.6474 58.1563 38.1127 58.2977 38.5886 58.4423C39.3764 58.6817 40.1935 58.93 41.0778 59.133Z" fill="#9287FF" stroke="black" stroke-width="0.715789"/>
<path d="M20.7453 58.7989L22.3832 55.2921C22.4224 55.2083 22.5196 55.1685 22.6067 55.1993C29.3936 57.6017 35.5677 57.4325 41.2895 55.8398C41.3615 55.8197 41.4384 55.8462 41.4825 55.9066L43.9757 59.316C44.0442 59.4097 44.0093 59.5418 43.9012 59.5843C37.8873 61.9457 26.6027 61.5443 20.832 59.0356C20.7405 58.9958 20.7031 58.8893 20.7453 58.7989Z" fill="#E0DDFF" stroke="black" stroke-width="0.715789"/>
</g>
<defs>
<clipPath id="clip0">
<rect width="35.7895" height="59.0526" fill="white" transform="translate(16.1053 7.69458)"/>
</clipPath>
</defs>
</svg>
