<svg width="129" height="108" viewBox="0 0 129 108" fill="none" xmlns="http://www.w3.org/2000/svg">
<g opacity="0.3" clip-path="url(#clip0)">
<path fill-rule="evenodd" clip-rule="evenodd" d="M128.434 16.8677C109.198 26.2387 99.5796 37.2494 99.5796 49.9002C107.779 50.8373 114.559 54.1562 119.92 59.8568C125.281 65.5575 127.961 72.1561 127.961 79.6529C127.961 87.6183 125.36 94.334 120.156 99.8004C114.953 105.267 108.409 108 100.526 108C91.6957 108 84.0485 104.447 77.5838 97.3406C71.119 90.2342 67.8867 81.6053 67.8867 71.4534C67.8867 40.9977 85.0732 17.1801 119.447 0L128.434 16.8677ZM60.5476 16.8677C41.1533 26.2387 31.4564 37.2494 31.4564 49.9002C39.8132 50.8373 46.6721 54.1562 52.0331 59.8568C57.3941 65.5575 60.0746 72.1561 60.0746 79.6529C60.0746 87.6183 57.4335 94.334 52.1513 99.8004C46.8692 105.267 40.2863 108 32.4024 108C23.5725 108 15.9647 104.447 9.57882 97.3406C3.19291 90.2342 0 81.6053 0 71.4534C0 40.9977 17.1077 17.1801 51.3235 0L60.5476 16.8677Z" fill="#A4CE2E"/>
</g>
<defs>
<clipPath id="clip0">
<rect width="129" height="108" fill="white"/>
</clipPath>
</defs>
</svg>
