<svg width="55" height="55" viewBox="0 0 55 55" fill="none" xmlns="http://www.w3.org/2000/svg">
<circle cx="27.5" cy="27.5" r="27.5" fill="#FFEDEF"/>
<mask id="mask0" mask-type="alpha" maskUnits="userSpaceOnUse" x="0" y="0" width="55" height="55">
<circle cx="27.5" cy="27.5" r="27.5" fill="#FFEDEF"/>
</mask>
<g mask="url(#mask0)">
<path d="M35.3107 53.909C33.2265 51.0142 31.5958 43.9704 31.4028 41.1721L21.4883 36.9023L17.3633 53.909H35.3107Z" fill="#FC909F" stroke="black" stroke-width="0.578947"/>
<mask id="mask1" mask-type="alpha" maskUnits="userSpaceOnUse" x="17" y="36" width="19" height="18">
<path d="M35.3104 53.909C33.2262 51.0142 31.5955 43.9704 31.4025 41.1721L21.488 36.9023L17.363 53.909H35.3104Z" fill="#FFEDEF"/>
</mask>
<g mask="url(#mask1)">
<ellipse cx="30.9736" cy="36.6185" rx="8.53947" ry="7.81579" fill="black"/>
</g>
<g clip-path="url(#clip0)">
<path d="M35.3153 52.4672C33.2311 49.5725 31.6004 43.976 31.4074 41.1777L21.4929 36.908L17.3679 52.4672H35.3153Z" fill="#77311D" stroke="black" stroke-width="0.578947"/>
<mask id="mask2" mask-type="alpha" maskUnits="userSpaceOnUse" x="17" y="36" width="455" height="432">
<path d="M471.6 467.33C418.85 394.067 377.578 215.794 372.694 144.972L121.768 36.908L17.3679 467.33H471.6Z" fill="#AC6651"/>
</mask>
<g mask="url(#mask2)">
<g style="mix-blend-mode:multiply">
<ellipse cx="30.9732" cy="36.6185" rx="8.53947" ry="7.81579" fill="black"/>
</g>
</g>
<mask id="path-9-inside-1" fill="white">
<path fill-rule="evenodd" clip-rule="evenodd" d="M39.641 28.0672C39.6371 28.0504 39.6331 28.0337 39.6291 28.0169C39.6251 28.0001 39.621 27.9834 39.6169 27.9667L37.2438 18.062C37.2415 18.052 37.2391 18.0419 37.2367 18.0319C37.2343 18.0219 37.2319 18.0119 37.2294 18.0018L37.2191 17.9586L37.2189 17.9586C35.7399 11.96 29.6933 8.27161 23.676 9.71331C17.6587 11.155 13.94 17.1831 15.34 23.2006L15.3398 23.2006L17.799 33.4651L17.801 33.4646C19.3357 39.385 25.3375 43.0087 31.3105 41.5776C37.2834 40.1465 40.9915 34.1964 39.6765 28.2234L39.6783 28.223L39.641 28.0672Z"/>
</mask>
<path fill-rule="evenodd" clip-rule="evenodd" d="M39.641 28.0672C39.6371 28.0504 39.6331 28.0337 39.6291 28.0169C39.6251 28.0001 39.621 27.9834 39.6169 27.9667L37.2438 18.062C37.2415 18.052 37.2391 18.0419 37.2367 18.0319C37.2343 18.0219 37.2319 18.0119 37.2294 18.0018L37.2191 17.9586L37.2189 17.9586C35.7399 11.96 29.6933 8.27161 23.676 9.71331C17.6587 11.155 13.94 17.1831 15.34 23.2006L15.3398 23.2006L17.799 33.4651L17.801 33.4646C19.3357 39.385 25.3375 43.0087 31.3105 41.5776C37.2834 40.1465 40.9915 34.1964 39.6765 28.2234L39.6783 28.223L39.641 28.0672Z" fill="#77311D"/>
<path d="M39.641 28.0672L39.0774 28.1995L39.078 28.2021L39.641 28.0672ZM39.6291 28.0169L39.066 28.1518L39.0661 28.1518L39.6291 28.0169ZM39.6169 27.9667L39.0539 28.1016L39.0545 28.1041L39.6169 27.9667ZM37.2438 18.062L36.6805 18.1954L36.6808 18.1969L37.2438 18.062ZM37.2367 18.0319L36.6737 18.1668L36.6737 18.1668L37.2367 18.0319ZM37.2294 18.0018L36.6664 18.1367L36.6668 18.1382L37.2294 18.0018ZM37.2191 17.9586L37.7821 17.8237L37.6474 17.2614L37.085 17.3953L37.2191 17.9586ZM37.2189 17.9586L36.6567 18.0972L36.7942 18.6548L37.353 18.5218L37.2189 17.9586ZM23.676 9.71331L23.5411 9.15029L23.676 9.71331ZM15.34 23.2006L15.4755 23.7635L16.0341 23.6291L15.9039 23.0694L15.34 23.2006ZM15.3398 23.2006L15.2043 22.6378L14.642 22.773L14.7767 23.3355L15.3398 23.2006ZM17.799 33.4651L17.236 33.6L17.3709 34.1629L17.9339 34.0281L17.799 33.4651ZM17.801 33.4646L18.3615 33.3193L18.2189 32.7692L17.6662 32.9016L17.801 33.4646ZM31.3105 41.5776L31.1756 41.0146L31.3105 41.5776ZM39.6765 28.2234L39.5415 27.6604L38.989 27.793L39.1111 28.3479L39.6765 28.2234ZM39.6783 28.223L39.8134 28.786L40.3762 28.651L40.2413 28.0881L39.6783 28.223ZM40.2046 27.9349C40.2005 27.9172 40.1963 27.8996 40.1921 27.882L39.0661 28.1518C39.0699 28.1678 39.0737 28.1837 39.0774 28.1995L40.2046 27.9349ZM40.1921 27.882C40.1879 27.8644 40.1836 27.8468 40.1793 27.8292L39.0545 28.1041C39.0584 28.12 39.0622 28.1359 39.066 28.1518L40.1921 27.882ZM36.6808 18.1969L39.0539 28.1016L40.1799 27.8318L37.8069 17.9271L36.6808 18.1969ZM37.8072 17.9286C37.8047 17.9181 37.8022 17.9075 37.7997 17.897L36.6737 18.1668C36.6759 18.1763 36.6782 18.1858 36.6805 18.1954L37.8072 17.9286ZM37.7997 17.897C37.7972 17.8865 37.7946 17.8759 37.7921 17.8655L36.6668 18.1382C36.6691 18.1478 36.6714 18.1573 36.6737 18.1668L37.7997 17.897ZM36.656 18.0934L36.6664 18.1367L37.7924 17.8669L37.7821 17.8237L36.656 18.0934ZM37.353 18.5218L37.3532 18.5218L37.085 17.3953L37.0848 17.3954L37.353 18.5218ZM37.781 17.82C36.2259 11.5126 29.8681 7.63439 23.5411 9.15029L23.8109 10.2763C29.5185 8.90882 35.2539 12.4074 36.6567 18.0972L37.781 17.82ZM23.5411 9.15029C17.2141 10.6662 13.3041 17.0045 14.7762 23.3318L15.9039 23.0694C14.576 17.3617 18.1033 11.6438 23.8109 10.2763L23.5411 9.15029ZM15.4752 23.7635L15.4755 23.7635L15.2046 22.6377L15.2043 22.6378L15.4752 23.7635ZM18.362 33.3302L15.9028 23.0657L14.7767 23.3355L17.236 33.6L18.362 33.3302ZM17.6662 32.9016L17.6642 32.902L17.9339 34.0281L17.9359 34.0276L17.6662 32.9016ZM17.2406 33.6099C18.8543 39.8352 25.1649 43.6454 31.4454 42.1406L31.1756 41.0146C25.5101 42.372 19.8171 38.9348 18.3615 33.3193L17.2406 33.6099ZM31.4454 42.1406C37.7258 40.6359 41.6246 34.3796 40.2419 28.0989L39.1111 28.3479C40.3583 34.0133 36.8411 39.6572 31.1756 41.0146L31.4454 42.1406ZM39.5433 27.66L39.5415 27.6604L39.8116 28.7864L39.8134 28.786L39.5433 27.66ZM39.078 28.2021L39.1153 28.3579L40.2413 28.0881L40.204 27.9323L39.078 28.2021Z" fill="black" mask="url(#path-9-inside-1)"/>
</g>
<path d="M29.8154 31.7982C30.4185 31.4605 32.8549 31.0311 32.8549 32.0153C32.8549 33.2456 31.1904 33.1732 31.1904 33.1732C31.1904 33.1732 33.0785 32.7157 32.7102 34.0417C32.3483 35.3443 31.3352 34.8377 31.0457 34.693" stroke="black" stroke-width="0.578947"/>
<path d="M28.8026 12.5921C30.9254 12.4956 34.6499 11.3184 32.5657 7.38159" stroke="black" stroke-width="0.578947"/>
<path d="M25.0394 12.3026C27.1622 12.2061 30.8868 11.0289 28.8026 7.09204" stroke="black" stroke-width="0.578947"/>
<path d="M19.8289 13.8946C21.9517 13.7981 25.6763 12.6209 23.592 8.68408" stroke="black" stroke-width="0.578947"/>
<path d="M31.6973 19.1364C32.5175 18.7504 34.4473 18.3982 35.6052 20.0772" stroke="#FC909F" stroke-width="0.578947" stroke-linecap="round"/>
<path d="M20.7811 22.7991C21.0808 21.9437 22.1825 20.3205 24.1915 20.6717" stroke="#FC909F" stroke-width="0.578947" stroke-linecap="round"/>
<path d="M21.1423 21.9216L20.2524 21.1362" stroke="#FC909F" stroke-width="0.578947" stroke-linecap="round"/>
<path d="M35.1654 19.2727L36.0553 18.4873" stroke="#FC909F" stroke-width="0.578947" stroke-linecap="round"/>
<path d="M22.0757 21.1049L21.49 20.0725" stroke="#FC909F" stroke-width="0.578947" stroke-linecap="round"/>
<path d="M34.0872 18.7455L34.6729 17.7131" stroke="#FC909F" stroke-width="0.578947" stroke-linecap="round"/>
<path d="M23.2446 20.5819L22.926 19.4385" stroke="#FC909F" stroke-width="0.578947" stroke-linecap="round"/>
<path d="M32.7735 18.6566L33.0921 17.5132" stroke="#FC909F" stroke-width="0.578947" stroke-linecap="round"/>
<path d="M25.8381 23.6475C26.107 24.5683 25.109 23.8613 24.1882 24.1302C23.2674 24.3991 22.7726 25.5421 22.5037 24.6213C22.2348 23.7005 22.7632 22.7361 23.684 22.4672C24.6048 22.1983 25.5692 22.7267 25.8381 23.6475Z" fill="#6BD9E9"/>
<path d="M35.071 22.3168C35.3076 23.2464 34.3917 22.5369 33.4621 22.7735C32.5325 23.0101 31.9413 24.1032 31.7047 23.1737C31.4681 22.2441 32.0299 21.2987 32.9595 21.0621C33.889 20.8255 34.8344 21.3872 35.071 22.3168Z" fill="#6BD9E9"/>
<path fill-rule="evenodd" clip-rule="evenodd" d="M22.7717 25.0533C22.7882 25.171 22.9378 25.1972 23.0209 25.1124C23.3777 24.7482 23.9263 24.4807 24.563 24.405C24.9386 24.3604 25.2999 24.3879 25.6219 24.4734C25.731 24.5023 25.8382 24.4102 25.8002 24.3039C25.5591 23.6316 24.8788 23.1896 24.1393 23.2775C23.2794 23.3796 22.6651 24.1596 22.7673 25.0195C22.7687 25.0308 22.7701 25.0421 22.7717 25.0533Z" fill="black"/>
<path fill-rule="evenodd" clip-rule="evenodd" d="M32.0491 23.6061C32.0654 23.7238 32.215 23.75 32.2982 23.6653C32.6518 23.3055 33.1944 23.0413 33.8241 22.9664C34.1952 22.9223 34.5524 22.9493 34.8708 23.0335C34.9799 23.0624 35.0872 22.9703 35.0489 22.864C34.8094 22.1992 34.1361 21.7624 33.4043 21.8494C32.5524 21.9506 31.9439 22.7233 32.0451 23.5752C32.0463 23.5855 32.0477 23.5958 32.0491 23.6061Z" fill="black"/>
<path d="M29.4943 25.0351C29.5238 25.5912 29.7401 26.7837 30.3698 27.1044C31.1569 27.5054 30.5399 28.8344 29.0663 28.7492" stroke="black" stroke-width="0.578947"/>
<path d="M35.2168 53.2327C35.1461 53.2283 35.0872 53.224 35.0408 53.2203C34.1506 51.8614 33.3395 49.6196 32.711 47.3168C32.1 45.0778 31.671 42.8167 31.5097 41.3233C36.8755 39.7719 40.2388 34.2338 39.4302 28.5199C39.4292 28.51 39.4282 28.503 39.428 28.5021L39.428 28.502C39.4268 28.4934 39.4253 28.4835 39.4236 28.4733C39.4202 28.4525 39.4153 28.4248 39.4092 28.3911C39.3969 28.3234 39.3788 28.228 39.3553 28.1084C39.3083 27.8691 39.2393 27.5312 39.151 27.1221C38.9745 26.3041 38.7204 25.1996 38.4105 24.028C38.1007 22.8572 37.734 21.6153 37.3317 20.524C36.9323 19.4406 36.4877 18.4769 36.0134 17.8841L35.9705 17.8305L35.9075 17.8031C35.6278 17.6818 35.3374 17.5466 35.0344 17.4055C33.5969 16.7362 31.8732 15.9337 29.6409 15.8454C26.9234 15.7379 23.4821 16.6813 18.8303 20.0551L18.5375 20.2675L18.8191 20.4944C21.1242 22.3519 21.6226 24.8158 21.5161 26.9074C21.4348 28.5036 21.0023 29.8616 20.7583 30.5403C20.5902 30.2947 20.4832 29.986 20.4027 29.6235C20.347 29.3729 20.3064 29.1088 20.2639 28.8322L20.2572 28.7885C20.2128 28.4998 20.1655 28.1987 20.0965 27.9079C19.9587 27.3274 19.7259 26.7472 19.2089 26.3363C18.6908 25.9244 17.9358 25.7204 16.8362 25.7818L16.5139 25.7998L16.5812 26.1156L18.2252 33.8319L18.2279 33.8449L18.2319 33.8575C18.8193 35.7191 19.8264 37.3328 21.1141 38.6067C21.1251 38.625 21.1411 38.652 21.1614 38.6868C21.2033 38.7584 21.2636 38.8633 21.3366 38.995C21.4828 39.2585 21.6794 39.6287 21.881 40.0549C22.2882 40.9159 22.7002 41.973 22.7795 42.8362C22.8601 43.7122 22.6398 44.8423 22.3877 45.7759C22.2629 46.238 22.1327 46.6433 22.0338 46.933C22.0132 46.9933 21.9939 47.0486 21.9764 47.0983C21.248 46.7502 20.5975 46.7761 20.04 47.1006C19.4374 47.4514 18.996 48.1224 18.6674 48.8687C18.067 50.2323 17.7783 52.0007 17.645 53.0981C14.0454 52.2724 11.2659 51.4342 9.37474 50.7974C8.40302 50.4702 7.66586 50.1961 7.17248 50.0043C6.9258 49.9083 6.74007 49.833 6.61644 49.7817C6.58574 49.769 6.55887 49.7578 6.53585 49.7481C6.51371 49.6915 6.48331 49.612 6.44641 49.511C6.36434 49.2864 6.25014 48.9559 6.12303 48.5355C5.86872 47.6944 5.56319 46.4949 5.35953 45.0651C4.95178 42.2027 4.95477 38.4353 6.5748 34.7717C6.83666 34.1795 7.16389 33.5711 7.51856 32.9118C8.88891 30.3641 10.6687 27.0552 10.6687 20.9783C10.6687 16.5507 12.8177 12.8219 15.9816 10.1933C19.1483 7.5623 23.3194 6.04538 27.3253 6.04538C29.5153 6.04538 31.276 6.29628 32.6912 7.15119C34.0977 8.00081 35.205 9.47374 36.0276 12.0116C36.1113 12.2699 36.3878 12.4278 36.6582 12.3401C38.296 11.8087 40.7792 12.3451 42.8752 13.7135C44.9621 15.0758 46.5828 17.2096 46.5828 19.7814C46.5828 22.0141 46.2004 23.5227 45.8276 24.992L45.8276 24.992C45.3762 26.7707 44.9403 28.4888 45.2479 31.2877C45.3504 32.2212 45.5591 32.8832 45.8507 33.432C46.1376 33.972 46.4993 34.3901 46.8804 34.8307L46.8891 34.8408C47.7971 35.8905 48.2103 36.7539 48.3438 37.5135C48.4769 38.2712 48.3375 38.9585 48.0785 39.6715C47.9483 40.0298 47.79 40.3894 47.6221 40.7684L47.6077 40.801C47.4454 41.1676 47.2754 41.5514 47.1227 41.9553C46.8068 42.7906 46.5602 43.7221 46.5847 44.8262C46.6056 45.7634 46.7717 46.4058 47.0202 46.8917C47.2659 47.3722 47.583 47.6795 47.8596 47.9475L47.8671 47.9547C48.1194 48.1992 48.3292 48.405 48.4845 48.6935C48.6233 48.9512 48.7262 49.2915 48.7435 49.8023C45.2685 51.8691 41.8292 52.7233 39.2464 53.0593C37.9386 53.2294 36.8518 53.2665 36.0936 53.2611C35.7146 53.2585 35.4178 53.2452 35.2168 53.2327Z" fill="#FC909F" stroke="black" stroke-width="0.553161"/>
<path d="M18.0194 26.0781C17.6821 25.9671 17.3181 25.908 16.9454 25.908C15.4267 25.908 14.1955 26.8487 14.3402 28.5856C14.4909 30.3948 15.5714 31.0461 17.0902 31.0461C17.2592 31.0461 17.4246 31.0313 17.5852 31.0029C17.7604 30.9718 17.9298 30.9247 18.0918 30.863" stroke="black" stroke-width="1.15789"/>
<path d="M18.1641 30.8342C17.8342 30.9707 17.4712 31.0461 17.0902 31.0461C15.5714 31.0461 14.4909 30.3948 14.3402 28.5856C14.1955 26.8487 15.4267 25.908 16.9454 25.908C17.3995 25.908 17.8409 25.9957 18.2365 26.1583L18.1641 30.8342Z" fill="#77311D"/>
<path d="M17.5852 27.1383C17.0062 26.8729 15.7325 26.733 15.2694 28.2962" stroke="black" stroke-width="0.578947"/>
<path d="M16.0654 27.2107C16.379 27.476 16.9773 28.2962 16.8615 29.4541" stroke="black" stroke-width="0.578947"/>
<path d="M17.5128 30.25C19.4313 30.25 20.9865 31.8052 20.9865 33.7237C20.9865 35.6421 19.4313 37.1974 17.5128 37.1974C15.5943 37.1974 14.0391 35.6421 14.0391 33.7237C14.0391 32.7986 14.5457 32.0592 14.9903 31.3355L15.1246 31.1184" stroke="#F4D150" stroke-width="0.578947"/>
<path d="M46.8024 55.4144H7.30234C7.30734 55.4042 7.31236 55.394 7.31742 55.3837C7.97522 54.044 9.18879 51.5725 10.7682 49.3613C11.6647 48.1063 12.6683 46.9508 13.741 46.1381C14.8138 45.3252 15.9294 44.8743 17.0627 44.9735C19.2416 45.1641 21.1824 46.3571 23.1308 47.5548C23.3154 47.6683 23.5001 47.7818 23.6851 47.8946C25.7816 49.1722 27.9345 50.3585 30.3022 49.8394C31.1033 49.6637 31.6431 49.2879 31.9829 48.8024C32.3178 48.3237 32.4382 47.7674 32.459 47.259C32.4799 46.7499 32.4018 46.2686 32.3208 45.9187C32.2829 45.7551 32.2438 45.618 32.2126 45.5174C32.7373 44.9893 33.2928 44.6818 33.8663 44.5433C34.4879 44.3932 35.1526 44.4365 35.8518 44.6434C37.26 45.0599 38.7668 46.1272 40.2373 47.4996C42.9314 50.0141 45.4035 53.4547 46.8024 55.4144Z" fill="white" stroke="black" stroke-width="0.618649"/>
</g>
<defs>
<clipPath id="clip0">
<rect width="28.9474" height="46.3158" fill="white" transform="translate(13.0258 6.22388)"/>
</clipPath>
</defs>
</svg>
